<mxfile host="65bd71144e">
    <diagram id="HLZWRK7obLb7gdV-u_Pq" name="__init__(Appクラス)">
        <mxGraphModel dx="986" dy="627" grid="1" gridSize="10" guides="1" tooltips="1" connect="1" arrows="1" fold="1" page="1" pageScale="1" pageWidth="827" pageHeight="1169" math="0" shadow="0">
            <root>
                <mxCell id="0"/>
                <mxCell id="1" parent="0"/>
                <mxCell id="2" value="&lt;span style=&quot;font-size: 14px;&quot;&gt;&lt;b&gt;初期化メソッド&lt;/b&gt;&lt;/span&gt;&lt;br&gt;クラス名：Appクラス&lt;br&gt;&lt;div&gt;&lt;b&gt;&lt;font style=&quot;font-size: 14px;&quot;&gt;&lt;br&gt;&lt;/font&gt;&lt;/b&gt;&lt;/div&gt;&lt;div&gt;&lt;span style=&quot;font-size: 14px;&quot;&gt;メソッドの役割の役割&lt;/span&gt;&lt;/div&gt;&lt;div&gt;&lt;span style=&quot;font-size: 14px;&quot;&gt;・アプリ起動&lt;/span&gt;&lt;/div&gt;" style="text;html=1;align=left;verticalAlign=top;whiteSpace=wrap;rounded=0;fillColor=#f5f5f5;fontColor=#333333;strokeColor=#666666;" parent="1" vertex="1">
                    <mxGeometry x="10" y="10" width="250" height="120" as="geometry"/>
                </mxCell>
                <mxCell id="37" style="edgeStyle=none;html=1;" parent="1" source="6" target="21" edge="1">
                    <mxGeometry relative="1" as="geometry"/>
                </mxCell>
                <mxCell id="6" value="開始" style="strokeWidth=2;html=1;shape=mxgraph.flowchart.start_1;whiteSpace=wrap;" parent="1" vertex="1">
                    <mxGeometry x="340" y="200" width="70" height="40" as="geometry"/>
                </mxCell>
                <mxCell id="20" value="" style="edgeStyle=orthogonalEdgeStyle;rounded=0;orthogonalLoop=1;jettySize=auto;html=1;" parent="1" source="21" target="23" edge="1">
                    <mxGeometry relative="1" as="geometry"/>
                </mxCell>
                <mxCell id="21" value="MainWindowインスタンス&lt;div&gt;.show_pageメソッド&lt;/div&gt;" style="shape=process;whiteSpace=wrap;html=1;backgroundOutline=1;" parent="1" vertex="1">
                    <mxGeometry x="280" y="320" width="190" height="60" as="geometry"/>
                </mxCell>
                <mxCell id="22" value="" style="edgeStyle=orthogonalEdgeStyle;rounded=0;orthogonalLoop=1;jettySize=auto;html=1;" parent="1" source="23" target="26" edge="1">
                    <mxGeometry relative="1" as="geometry"/>
                </mxCell>
                <mxCell id="23" value="MainWindowインスタンス&lt;div&gt;.mainloopメソッド&lt;/div&gt;" style="shape=process;whiteSpace=wrap;html=1;backgroundOutline=1;" parent="1" vertex="1">
                    <mxGeometry x="280" y="460" width="190" height="60" as="geometry"/>
                </mxCell>
                <mxCell id="24" style="rounded=0;orthogonalLoop=1;jettySize=auto;html=1;entryX=1;entryY=0.5;entryDx=0;entryDy=0;endArrow=none;endFill=0;" parent="1" source="25" target="21" edge="1">
                    <mxGeometry relative="1" as="geometry"/>
                </mxCell>
                <mxCell id="25" value="&lt;div&gt;&lt;/div&gt;引数1: &quot;&lt;span style=&quot;color: rgb(0, 0, 0);&quot;&gt;Page1&quot; &amp;gt;&amp;nbsp;&lt;/span&gt;str型&lt;br&gt;※表示したいページクラス名" style="text;html=1;align=center;verticalAlign=middle;whiteSpace=wrap;rounded=0;fillColor=#f5f5f5;fontColor=#333333;strokeColor=#666666;" parent="1" vertex="1">
                    <mxGeometry x="535" y="300" width="180" height="50" as="geometry"/>
                </mxCell>
                <mxCell id="26" value="終了" style="strokeWidth=2;html=1;shape=mxgraph.flowchart.start_1;whiteSpace=wrap;" parent="1" vertex="1">
                    <mxGeometry x="340" y="600" width="70" height="40" as="geometry"/>
                </mxCell>
                <mxCell id="34" value="表示するページを設定" style="shape=callout;whiteSpace=wrap;html=1;perimeter=calloutPerimeter;position2=1;" parent="1" vertex="1">
                    <mxGeometry x="135" y="270" width="130" height="80" as="geometry"/>
                </mxCell>
                <mxCell id="35" value="メインウィンドウ表示" style="shape=callout;whiteSpace=wrap;html=1;perimeter=calloutPerimeter;position2=1;" parent="1" vertex="1">
                    <mxGeometry x="135" y="420" width="130" height="80" as="geometry"/>
                </mxCell>
            </root>
        </mxGraphModel>
    </diagram>
</mxfile>